<svg id="Layer_1" data-name="Layer 1" xmlns="http://www.w3.org/2000/svg" viewBox="0 0 300 300"><defs><style>.cls-1,.cls-3{fill:#fbea26;}.cls-2,.cls-5{fill:#231f20;}.cls-2,.cls-3,.cls-4{fill-rule:evenodd;}.cls-4{fill:#fff;}</style></defs><title>AGMARK</title><path class="cls-1" d="M150,300C67.29,300,0,232.71,0,150S67.29,0,150,0,300,67.29,300,150,232.71,300,150,300ZM150,.74C67.7.74.74,67.7.74,150S67.7,299.26,150,299.26,299.26,232.3,299.26,150,232.3.74,150,.74Z"/><path class="cls-2" d="M150,.38C232.38.38,299.62,67.62,299.62,150S232.38,299.62,150,299.62.38,232.38.38,150,67.62.38,150,.38Z"/><path class="cls-2" d="M150,7.58c78.42,0,142.43,64,142.43,142.42S228.42,292.43,150,292.43,7.58,228.42,7.58,150,71.58,7.58,150,7.58Z"/><path class="cls-1" d="M150,294.31C70.43,294.31,5.69,229.58,5.69,150S70.43,5.69,150,5.69,294.31,70.43,294.31,150,229.57,294.31,150,294.31ZM150,9.45C72.5,9.45,9.45,72.5,9.45,150S72.5,290.55,150,290.55,290.55,227.5,290.55,150,227.5,9.45,150,9.45Zm0,239.28A98.73,98.73,0,1,1,248.73,150,98.73,98.73,0,0,1,150,248.73ZM150,55a95,95,0,1,0,95,95A95,95,0,0,0,150,55Z"/><path class="cls-3" d="M150,59.17A90.83,90.83,0,1,1,59.17,150,91,91,0,0,1,150,59.17Z"/><path class="cls-4" d="M29.69,152.68,30,158c-5-1-5.36-4.69-5.36-5.7,0-3.33,1.33-6.67,7.71-7,6,0,8.37,3,8.7,6.36,0,3.69-3,5.37-3.68,5.37v5c3.33-.67,8-3.33,7.71-10.72-.34-7.71-6.67-11.06-12.73-11.06C24,140.93,20,146,20.31,151.65a7.8,7.8,0,0,0,4,7l-3,.67v3l12.4-.33v-9.7ZM33,166.08C22.3,168.77,23,177.14,23.64,179.83c1,3.33,4.36,10.72,14.74,8,10.73-2.68,10.06-10.73,9.39-14.08C46.77,171.12,43.75,163.41,33,166.08Zm1,4.36c6.67-1.34,9,2,9.72,4.69.67,2.35,0,6.37-6.37,8-6.36,1.35-8.71-1.66-9.38-4.35S28,172.15,34,170.44Zm2.68,29.83h0l13.74-12.4-2.34-4.7L30.36,200.94,32.71,205l24.46-3.33-2.34-4.36-18.11,3ZM68.22,216,57.5,202.62,39.07,217,50.13,231.1l3.34-2.34-8-10.43,4.69-3.69,7,9.05L60.5,221l-7-9,3.69-3,7.7,9.72L68.21,216ZM53.8,236.8l3.33,3,6-6.67,3.69,3c3,2.68,2,3.69,0,6a10.22,10.22,0,0,0-2.69,4l4,3.69.67-.67c-.67-1,0-1.67,2.34-4,2.68-3.34,2.35-4.69,1.34-6.67,2.35,1,4.69.33,6.71-1.34,1.33-1.67,3.68-6-1-10.06l-8.72-7.71L53.78,236.88Zm12.07-6.71,4-4.69,4.69,4c2.34,1.67,1.34,3.69.67,4.36-1.67,2-3,2-5,0l-4.36-3.69Zm22.79,25.48h0L89,236.46l-4-2.68L72.94,254.23l3.68,2,8.72-14.07h0L85,261.26l4,2.68,12.4-20.11-4.36-2.34-8.38,14.08Zm36.19-1.67-6.67-2.35L107.46,267.3h0l2.67-18.77-6.38-2.7L95,267.62l4,1.66,7-18.43h0L103.42,271l4.36,1.67,11.39-16.73h0l-7,18.43,4.35,1.34,8.39-21.78Zm18.77,2.34-17.43-2.34-3,23.12,17.43,2.68.67-4.36-12.74-1.66.68-6,11.39,1.67.67-4-11.73-1.66,1-4.69,12.39,1.34.68-4ZM161.37,272h0L151,255.91l-5,.67,1.67,23.12,4.36-.33-1.35-16.76h0L161.74,279l5-.67-1.67-23.46-4.69.68,1,16.41Zm17.1-15.75,6.66-1.66-1-4.05-18.44,5,1.35,3.69,6.66-1.67L178.43,276l4.7-1-4.7-18.77Zm19.44,2c5.69,9.05,13.4,6.38,16.08,4.69s8.72-7.36,3-16.75c-5.7-9.05-13.41-5.7-16.09-4.36C198.57,243.5,192.21,248.87,197.91,258.25Zm4-2.67c-3.33-5.37-1-8.72,1.35-10.06,2-1.67,6-2,9.38,3.33,3.33,5.7,1.34,9-1,10.39-2,1-6.38,2-9.73-3.68Zm23.8-13.75,7.71-6.66-2.35-3-8,6.67-3.33-4,9-7.71-3-3-12.07,10.71,15.09,17.44,3.68-2.69-6.67-7.71Zm11.06-30.5-3.33,3.7,18.77,14.74,3-4L236.8,211.33ZM260.91,204h0l-18.77-.68-3,4.35,20.11,12.07,2.35-3.69-14.13-8.71h0l19.1.66,2.68-4.35-19.77-12.06-2.35,3.68L260.9,204Zm10.39-7,3.33-9.39c3-7.37-3-11.72-7.71-13.74-4.35-1.34-11.39-2.34-13.74,5l-3.68,9.39,21.78,8.71Zm-16.42-11.4,1.66-4.35c.68-2,2.69-5,8.72-2.69,3.68,1.34,6.66,4.36,5.7,8l-2,4.36-14.07-5.36Zm1-20.78-.66,5,23.11,3,.68-4.69-23.13-3.33ZM275,155l.33-8.71,5.37-1,.33-5.35-24.12,6.66V152L279.36,162l.66-5Zm-13.07-5.36h0l9.74-2-.67,5.7L262,149.67Z"/><path class="cls-4" d="M35.05,103.08a8.94,8.94,0,1,1-.22,0Z"/><path class="cls-4" d="M262.6,103.08a8.88,8.88,0,0,1,.54,17.76h-.54a8.88,8.88,0,0,1,0-17.76Z"/><path class="cls-5" d="M103.38,148.85l44.73-73L150,72.75l1.89,3.08,44.73,73,.71,1.16-.71,1.15-44.73,73L150,227.25l-1.88-3.08-44.73-73-.7-1.16.7-1.15ZM150,81.25,107.87,150,150,218.75,192.13,150Z"/><path class="cls-2" d="M147.6,114.67h4.32l.75,2.77h2.66L151.17,104h-2.83l-4.17,13.44h2.58l.83-2.77Zm2.16-7.64h0l1.45,5.32h-3l1.5-5.32Zm.41,22.14h2.73c-.51,2.71-2.3,3-2.84,3-1.67,0-3.41-.95-3.41-4.63,0-3.44,1.62-4.82,3.33-4.82a2.68,2.68,0,0,1,2.57,2.2H155a4.88,4.88,0,0,0-5.14-4.53c-3.94,0-5.73,3.45-5.73,7.12,0,4.71,2.57,7,5.39,7a4.2,4.2,0,0,0,3.66-2l.24,1.66h1.66v-7.24h-4.89v2.28Zm5.31,8.25h-3.54L149.86,148h0l-2.13-10.6h-3.56v13.41h2.28v-11.2h0l2.13,11.2H151l2.19-11.23h0v11.23h2.28V137.42ZM147.6,164.8h4.32l.75,2.77h2.66l-4.16-13.44h-2.83l-4.17,13.44h2.58l.83-2.77Zm2.16-7.63h0l1.45,5.31h-3l1.5-5.31Zm-4.64,27.11h2.38V179H150c1.81,0,1.91.71,1.91,2.5a9.57,9.57,0,0,0,.27,2.72h2.7v-.36c-.52-.22-.52-.71-.52-2.67,0-2.5-.53-2.92-1.49-3.41a3.24,3.24,0,0,0,1.81-3.2,3.55,3.55,0,0,0-3.32-3.79h-6.29v13.44Zm2.4-7.5v-3.61h3a1.58,1.58,0,0,1,1.72,1.44,1.16,1.16,0,0,1,0,.32c0,1.32-.61,1.83-1.89,1.83Zm.23,19.69,1.14-1.35L152.5,201h3.15l-5.06-7.94,4.78-5.51h-3.16L147.73,193v-5.47h-2.45V201h2.45v-4.56Z"/><path class="cls-2" d="M116.87,146.83h9.23v1.73h-1v4.32c0,.44-1,1.3-2,1.3l-1-1.3h1v-4.32H120v5.61l5.12,4.76v1.29a2.06,2.06,0,0,1-2,1.73l-.52-1.28a1.71,1.71,0,0,0,1-.44,1.25,1.25,0,0,0-.51-.83l-4.61-5.23v-5.63h-1.54v-1.71Zm9.23,0h10.27v1.73h-1v10.38h-2.05V148.56h-2.05v5.61s0,1.29-1,1.29c-.52,0-3.09-2.59-3.09-3,0-.83.52-.83.52-.83h1.53v-3h-3.09v-1.73Z"/><path class="cls-2" d="M159.51,146.83h9.6v1.73h-1.37v10.38h-1.37v-5.19h-3.2V155s0,.84-.46.84l-2.29-3c0-.83.91-.83.91-.83h.46v-3.46h-2.28Zm6.86,1.73h-3.2V152h3.2Zm2.74-1.73h4.11v1.73h-.91v10.38h-1.83V148.56h-1.37Zm5,6.49a3.22,3.22,0,0,1,3-3.46h.23l.46,1.3c-.46,0-2.29,0-2.29,1.73,0,1.3.91,2.16,1.37,2.16a1.65,1.65,0,0,0,1.37-.83v-5.63h-5v-1.73h11.9v1.73h-5v2.59s.91-1.3,1.83-1.3a3,3,0,0,1,2.74,3,6.05,6.05,0,0,1-2.28,4.32l-.92-.83a4.65,4.65,0,0,0,1.34-3.07c0-.83-.46-1.73-1.37-1.73-.46,0-1.38,1.3-1.38,1.3V159h-1.82v-3c-1.83,1.29-4.12,0-4.12-2.6Zm11-11.25v1.26c-.46-.43-.46-.43-.91-.43-1.83,0-1.83,3.89-.45,3.89h-.92c-.46,0-1.38-1.3-1.38-2.59,0-2.17,2.3-3.47,3.66-2.17Z"/><path class="cls-4" d="M46.33,79.72l-1.66,2.34c-4-.67-4.69-5.36-2.34-8.33,2-2.69,5.35-3.34,7.7-1.67l5,4,4.1-5-5.74-5.25c-.93,1.07-1.85,2.15-2.75,3.25l-3-2.67a123.09,123.09,0,0,1,8.9-9.84A132.38,132.38,0,0,1,115.28,22.4l1.09,3.82-2.44.69,7.24,20.38L116.81,49l-5-13.74-8.34,3c-.34.34-2.68,1-1.66,3,2,4,9.72,7,10,6.67l-2.09,3.75s-10-4-12.06-9.05A5.27,5.27,0,0,1,100.06,36l10.72-3.69-1.33-3.93A128.32,128.32,0,0,0,86.9,38.42l-1.26.83,3,5.69c2,2.69-.34,5.7-2.69,7a45.16,45.16,0,0,0,4.7,2c2.68.68,6,1.67,6.37,1.67l-1.34,4S90,58,84.3,56c-4-1.66-8.71-4-8.71-4l1.67-3.7s4,3,6.66,1c1.67-.67.68-2.34.68-2.68l-3.33-4.87A129.28,129.28,0,0,0,65.91,53.33L81.28,69.78,77.6,73.12,62.65,56.23Q61,57.79,59.38,59.38c-1.06,1.07-2,2.08-2.92,3L72.91,77.12l-3,3.71-8.37-7.61-3.79,4.86,2.68,2.34a1.39,1.39,0,0,1,0,2l0,.05c-.34,1.34-8.71,2.35-9.39,1.66-1.34-1-.66-2-.66-2l2-2.35L47,75.38c-2-1.35-4,2-2,3.33A16.2,16.2,0,0,0,46.33,79.72ZM150,17.75h0a131.83,131.83,0,0,1,93.43,38.82,134,134,0,0,1,18.29,22.81l-3.42,2.05c-.55-.83-1.11-1.72-1.67-2.58l-5.08,4c-2.68,2-5.7,0-7.71-2a28,28,0,0,0-1.34,5c-.33,2.34-1,6-1,6.37l-4-.68s1-6,2.67-12.06c1-4,2.68-8.71,2.68-8.71l4,1s-2.69,4.35-.34,7c1,1.34,2.68,0,3,0L254,75a129.88,129.88,0,0,0-12.4-14.71L226.42,77.08l-3.7-3,15.61-16.9a128.49,128.49,0,0,0-16.86-13.56L218.68,48a6.65,6.65,0,0,1,5,1,7.4,7.4,0,0,1,2.38,9.36c-2.68,4-9.39,5.38-9.39,5.38L215,60s5-.67,7-3.68c1-1.67,1-3.69-.67-4.69-2-1.35-5,.33-5.36.33l-6.37,10.38-4-2,3.33-5c-6,0-10.38-6.36-7-11.39,4.36-7,11.39-1.34,11.39-1.34l-.67,3.33c-.67-1-4.69-3.68-7-.33-1.34,2-1,4.36.68,5.36,2.34,1.67,5,.33,5,0l6.38-9.83A127.21,127.21,0,0,0,197.79,31l-2.22,6.23c-1.34,3-5,3-7.71,2a37.22,37.22,0,0,0,1.34,5c1,2.34,2.68,6,3,6L187.86,52a117.9,117.9,0,0,1-4-11.7c-1-3.68-2.34-9-2.34-9l4-1s0,5,3.33,6a1.66,1.66,0,0,0,2.21-.82,1.54,1.54,0,0,0,.14-.52l2.36-5.51A126,126,0,0,0,172,23.63l-.95,22-4.35-.34.34-11.73-5-.33-2-3.34,7.37.67.3-7.58c-2.55-.36-5.11-.64-7.7-.84l-.3,6.74c0,3-2.35,4.7-5.37,4.36.34,0,2,3,3,4.69a52.8,52.8,0,0,1,3.69,4.36l-3.69,2.34s-3-4-6-9a43.58,43.58,0,0,1-4.67-7.72l3.69-2.34c-.34,3,4.69,6.66,4.69,2.34l.29-6c-1.76-.06-3.52-.11-5.31-.11h0c-1.85,0-3.7,0-5.54.12v-4c1.84-.08,3.69-.12,5.54-.12Z"/></svg>