<svg width="20" height="20" viewBox="0 0 20 20" fill="none" xmlns="http://www.w3.org/2000/svg">
<path d="M10 0C4.48581 0 0 4.4859 0 9.99982C0 15.5139 4.48581 20 10 20C15.5138 20 20 15.5139 20 9.99982C20 4.4859 15.5138 0 10 0ZM12.8263 6.31269C12.8263 6.36004 12.8075 6.40545 12.774 6.43893C12.7405 6.47242 12.6951 6.49123 12.6477 6.49123L11.511 6.49194C10.7609 6.49194 10.6238 6.78402 10.6238 7.35927V8.55261H12.5735C12.6247 8.55261 12.6736 8.57474 12.7074 8.61331C12.7411 8.65187 12.7568 8.70311 12.7506 8.75399L12.473 10.9023C12.4674 10.9454 12.4464 10.9849 12.4138 11.0136C12.3812 11.0422 12.3392 11.058 12.2958 11.058H10.6238V16.3925C10.6238 16.4398 10.605 16.4853 10.5715 16.5187C10.538 16.5522 10.4926 16.571 10.4453 16.571H8.2271C8.17975 16.571 8.13434 16.5522 8.10086 16.5187C8.06737 16.4853 8.04856 16.4398 8.04856 16.3925V11.058H6.37118C6.32383 11.058 6.27842 11.0392 6.24494 11.0057C6.21145 10.9722 6.19264 10.9268 6.19264 10.8795V8.73114C6.19264 8.68379 6.21145 8.63838 6.24494 8.6049C6.27842 8.57142 6.32383 8.55261 6.37118 8.55261H8.04856V7.14663C8.04856 5.2845 9.1755 4.12794 10.99 4.12794C11.77 4.12794 12.4594 4.18596 12.6711 4.21399C12.714 4.21966 12.7534 4.24073 12.782 4.27328C12.8105 4.30583 12.8263 4.34764 12.8263 4.39092V6.31269Z" fill="white"/>
</svg>
