<svg width="20" height="20" viewBox="0 0 20 20" fill="none" xmlns="http://www.w3.org/2000/svg">
<path d="M10 0C8.02219 0 6.08879 0.58649 4.4443 1.6853C2.79981 2.78412 1.51809 4.3459 0.761209 6.17317C0.00433282 8.00043 -0.193701 10.0111 0.192152 11.9509C0.578004 13.8907 1.53041 15.6725 2.92894 17.0711C4.32746 18.4696 6.10929 19.422 8.0491 19.8079C9.98891 20.1937 11.9996 19.9957 13.8268 19.2388C15.6541 18.4819 17.2159 17.2002 18.3147 15.5557C19.4135 13.9112 20 11.9778 20 10C20 8.68678 19.7413 7.38642 19.2388 6.17317C18.7363 4.95991 17.9997 3.85752 17.0711 2.92893C16.1425 2.00035 15.0401 1.26375 13.8268 0.761205C12.6136 0.258658 11.3132 0 10 0ZM15.1771 12.1479C15.1682 12.5798 15.0861 13.007 14.9344 13.4115C14.8006 13.7574 14.596 14.0715 14.3338 14.3338C14.0715 14.596 13.7574 14.8006 13.4115 14.9344C13.007 15.0861 12.5798 15.1681 12.1479 15.1771C11.5917 15.2021 11.4146 15.2083 10 15.2083C8.58542 15.2083 8.40834 15.2021 7.85209 15.1771C7.42022 15.1681 6.99299 15.0861 6.58855 14.9344C6.24263 14.8006 5.92848 14.596 5.66623 14.3338C5.40397 14.0715 5.19941 13.7574 5.06563 13.4115C4.91392 13.007 4.83186 12.5798 4.82292 12.1479C4.79792 11.5917 4.79167 11.4146 4.79167 10C4.79167 8.58542 4.79792 8.40833 4.82292 7.85208C4.83186 7.42022 4.91392 6.99298 5.06563 6.58854C5.19941 6.24263 5.40397 5.92848 5.66623 5.66622C5.92848 5.40397 6.24263 5.1994 6.58855 5.06562C6.99299 4.91392 7.42022 4.83185 7.85209 4.82292C8.40834 4.79792 8.58542 4.79167 10 4.79167C11.4146 4.79167 11.5917 4.79792 12.1479 4.82292C12.5798 4.83185 13.007 4.91392 13.4115 5.06562C13.7574 5.1994 14.0715 5.40397 14.3338 5.66622C14.596 5.92848 14.8006 6.24263 14.9344 6.58854C15.0861 6.99298 15.1682 7.42022 15.1771 7.85208C15.2021 8.40833 15.2083 8.58542 15.2083 10C15.2083 11.4146 15.2021 11.5917 15.1771 12.1479Z" fill="white"/>
</svg>
