<svg width="15" height="14" viewBox="0 0 15 14" fill="none" xmlns="http://www.w3.org/2000/svg">
<path d="M11.3481 8.81141L10.0936 9.46949C9.94303 9.54841 9.76887 9.57928 9.5977 9.55739C9.42654 9.5355 9.26776 9.46206 9.14563 9.34827L4.9584 5.44945C4.83628 5.33568 4.75746 5.18785 4.73396 5.0285C4.71045 4.86914 4.74355 4.707 4.82821 4.56679L5.53498 3.39865C5.6622 3.18841 5.71201 2.94517 5.6768 2.70609C5.64159 2.46701 5.5233 2.24524 5.33999 2.07465L3.45967 0.323841C3.34946 0.221174 3.21861 0.139731 3.07458 0.0841656C2.93056 0.0285998 2.7762 0 2.6203 0C2.46441 0 2.31004 0.0285998 2.16602 0.0841656C2.022 0.139731 1.89114 0.221174 1.78094 0.323841L0.927171 1.11824C0.427915 1.5831 0.109899 2.19003 0.02369 2.84253C-0.0625195 3.49502 0.0880266 4.15563 0.45139 4.7193L0.879773 5.38409C3.06742 8.77896 6.15523 11.5935 9.847 13.5577L9.9316 13.6029C11.1927 14.2739 12.7509 14.0784 13.7606 13.1387L14.6522 12.3086C14.7625 12.2059 14.8499 12.0841 14.9096 11.95C14.9693 11.8159 15 11.6722 15 11.527C15 11.3818 14.9693 11.2381 14.9096 11.104C14.8499 10.9699 14.7625 10.8481 14.6522 10.7455L12.7707 8.99352C12.5875 8.82263 12.3492 8.71229 12.0923 8.67941C11.8355 8.64652 11.5741 8.69288 11.3481 8.81141Z" fill="white"/>
</svg>
